<?xml version="1.0" encoding="utf-8"?>
<!-- Generator: Adobe Illustrator 19.2.1, SVG Export Plug-In . SVG Version: 6.00 Build 0)  -->
<svg version="1.1" id="Layer_1" xmlns="http://www.w3.org/2000/svg" xmlns:xlink="http://www.w3.org/1999/xlink" x="0px" y="0px"
	 viewBox="0 0 44 44" style="enable-background:new 0 0 44 44;" xml:space="preserve">
<style type="text/css">
	.st0{fill:#24252A;}
</style>
<path class="st0" d="M-57.1,18.1v8.1h3.7v-8.1h2.7l0.6-3.2h-3.2c0,0,0-1.6,0-2.4c0-0.3,0.2-0.8,0.7-0.8c0.8,0,1.9,0,1.9,0V8.4
	c0,0-1.8,0-3.6,0c-1.6,0-2.8,1.3-2.8,3.1c0,1.6,0,3.4,0,3.4h-2.4v3.2H-57.1z"/>
<path class="st0" d="M27.4,22c0,3-2.4,5.4-5.4,5.4S16.6,25,16.6,22c0-0.3,0-0.5,0.1-0.8h-3.6v7c0,1.5,1.2,2.7,2.7,2.7h12.2
	c1.5,0,2.7-1.2,2.7-2.7v-7h-3.6C27.3,21.5,27.4,21.7,27.4,22z M28.1,13.1H15.9c-1.5,0-2.7,1.2-2.7,2.7v2.9h4.5
	c1-1.4,2.6-2.2,4.4-2.2c1.8,0,3.4,0.8,4.4,2.2h4.5v-2.9C30.9,14.3,29.7,13.1,28.1,13.1z M29.4,16.5c0,0.2-0.2,0.5-0.5,0.5h-1.5
	c-0.2,0-0.5-0.2-0.5-0.5V15c0-0.2,0.2-0.5,0.5-0.5H29c0.2,0,0.5,0.2,0.5,0.5V16.5z M25.3,22c0-1.9-1.5-3.3-3.3-3.3
	c-1.9,0-3.3,1.5-3.3,3.3s1.5,3.3,3.3,3.3C23.9,25.3,25.3,23.9,25.3,22z"/>
<path class="st0" d="M23.2-30.1c-0.6,0.3-1.4,0.5-2.1,0.6c0.7-0.5,1.3-1.1,1.6-2c-0.7,0.4-1.5,0.7-2.3,0.9c-0.6-0.7-1.6-1.1-2.7-1.1
	c-2,0-3.6,1.6-3.6,3.6c0,0.3,0,0.6,0.1,0.8c-3.1-0.2-5.7-1.6-7.5-3.8c-0.3,0.6-0.5,1.1-0.5,1.9c0,1.3,0.6,2.3,1.6,3.1
	c-0.6,0-1.1-0.2-1.6-0.5c0,0,0,0,0,0.1c0,1.8,1.3,3.2,2.9,3.6c-0.3,0.1-0.6,0.2-1,0.2c-0.2,0-0.5,0-0.6-0.1c0.5,1.5,1.8,2.5,3.4,2.5
	C9.6-19.5,8-19,6.3-19C6-19,5.7-19,5.4-19C7-18,9-17.4,11-17.4c6.7,0,10.4-5.6,10.4-10.4c0-0.2,0-0.3,0-0.5
	C22.1-28.7,22.7-29.4,23.2-30.1z"/>
</svg>
