<?xml version="1.0" encoding="utf-8"?>
<!-- Generator: Adobe Illustrator 19.2.1, SVG Export Plug-In . SVG Version: 6.00 Build 0)  -->
<svg version="1.1" id="Layer_1" xmlns="http://www.w3.org/2000/svg" xmlns:xlink="http://www.w3.org/1999/xlink" x="0px" y="0px"
	 viewBox="0 0 44 44" style="enable-background:new 0 0 44 44;" xml:space="preserve">
<style type="text/css">
	.st0{fill:#24252A;}
</style>
<path class="st0" d="M-57.1,18.1v8.1h3.7v-8.1h2.7l0.6-3.2h-3.2c0,0,0-1.6,0-2.4c0-0.3,0.2-0.8,0.7-0.8c0.8,0,1.9,0,1.9,0V8.4
	c0,0-1.8,0-3.6,0c-1.6,0-2.8,1.3-2.8,3.1c0,1.6,0,3.4,0,3.4h-2.4v3.2H-57.1z"/>
<path class="st0" d="M30.9,16.5c-0.6,0.3-1.4,0.5-2.1,0.6c0.7-0.5,1.3-1.1,1.6-2c-0.7,0.4-1.5,0.7-2.3,0.9c-0.6-0.7-1.6-1.1-2.7-1.1
	c-2,0-3.6,1.6-3.6,3.6c0,0.3,0,0.6,0.1,0.8c-3.1-0.2-5.7-1.6-7.5-3.8c-0.3,0.6-0.5,1.1-0.5,1.9c0,1.3,0.6,2.3,1.6,3.1
	c-0.6,0-1.1-0.2-1.6-0.5c0,0,0,0,0,0.1c0,1.8,1.3,3.2,2.9,3.6c-0.3,0.1-0.6,0.2-1,0.2c-0.2,0-0.5,0-0.6-0.1c0.5,1.5,1.8,2.5,3.4,2.5
	c-1.2,1-2.8,1.5-4.5,1.5c-0.3,0-0.6,0-0.9-0.1c1.6,1.1,3.6,1.6,5.6,1.6c6.7,0,10.4-5.6,10.4-10.4c0-0.2,0-0.3,0-0.5
	C29.8,17.9,30.4,17.2,30.9,16.5z"/>
</svg>
